<svg preserveAspectRatio="none" width="100%" height="100%" overflow="visible" style="display: block;" viewBox="0 0 40 40" fill="none" xmlns="http://www.w3.org/2000/svg">
<g id="gis:layers" clip-path="url(#clip0_0_41)">
<path id="Vector" d="M11.254 4.1428C11.0509 4.14282 10.8503 4.18701 10.666 4.27231C10.4817 4.35762 10.3182 4.48199 10.1868 4.6368L0.3328 16.2428C0.159737 16.4465 0.0486147 16.6955 0.0125655 16.9604C-0.0234836 17.2253 0.0170477 17.4949 0.129369 17.7375C0.24169 17.98 0.421106 18.1854 0.646411 18.3292C0.871717 18.4731 1.13349 18.5494 1.4008 18.5492L38.6008 18.5236C38.868 18.5235 39.1295 18.4469 39.3546 18.303C39.5797 18.159 39.7588 17.9537 39.871 17.7111C39.9831 17.4686 40.0235 17.1991 39.9874 16.9344C39.9513 16.6697 39.8402 16.4208 39.6672 16.2172L29.836 4.6368C29.7046 4.48199 29.5411 4.35762 29.3568 4.27231C29.1725 4.18701 28.9719 4.14282 28.7688 4.1428H11.254ZM35.964 20.5252L32.2928 20.528L35.5772 24.396L4.4272 24.4172L7.7152 20.5444L4.04 20.5476L0.3328 24.9132C0.159737 25.1169 0.0486147 25.3659 0.0125655 25.6308C-0.0234836 25.8957 0.0170477 26.1653 0.129369 26.4079C0.24169 26.6504 0.421106 26.8558 0.646411 26.9996C0.871717 27.1435 1.13349 27.2198 1.4008 27.2196L38.6008 27.1936C38.8679 27.1934 39.1294 27.1168 39.3544 26.9729C39.5794 26.829 39.7585 26.6237 39.8706 26.3812C39.9827 26.1388 40.0231 25.8694 39.9871 25.6047C39.951 25.34 39.8401 25.0912 39.6672 24.8876L35.964 20.5252ZM35.964 29.1624L32.2928 29.1656L35.5772 33.0336L4.4272 33.0548L7.7152 29.182L4.04 29.1852L0.3328 33.5508C0.159737 33.7545 0.0486147 34.0035 0.0125655 34.2684C-0.0234836 34.5333 0.0170477 34.8029 0.129369 35.0455C0.24169 35.288 0.421106 35.4934 0.646411 35.6372C0.871717 35.7811 1.13349 35.8574 1.4008 35.8572L38.6008 35.8312C38.868 35.8311 39.1295 35.7545 39.3546 35.6106C39.5797 35.4666 39.7588 35.2613 39.871 35.0187C39.9831 34.7762 40.0235 34.5067 39.9874 34.242C39.9513 33.9773 39.8402 33.7284 39.6672 33.5248L35.964 29.1624Z" fill="var(--fill-0, #A62C2C)"/>
</g>
<defs>
<clipPath id="clip0_0_41">
<rect width="40" height="40" fill="white"/>
</clipPath>
</defs>
</svg>
