<svg preserveAspectRatio="none" width="100%" height="100%" overflow="visible" style="display: block;" viewBox="0 0 36.9093 29.1312" fill="none" xmlns="http://www.w3.org/2000/svg">
<g id="Group">
<path id="Vector" fill-rule="evenodd" clip-rule="evenodd" d="M21.899 3.19771L19.389 6.02104L17.5207 4.35938L20.029 1.53771C20.459 1.05416 20.9865 0.667143 21.5768 0.402122C22.1672 0.1371 22.8069 8.13802e-05 23.454 8.13802e-05C24.1011 8.13802e-05 24.7408 0.1371 25.3312 0.402122C25.9215 0.667143 26.449 1.05416 26.879 1.53771L35.7523 11.521C36.4976 12.3599 36.9093 13.4431 36.9093 14.5652C36.9093 15.6873 36.4976 16.7705 35.7523 17.6094M35.7523 17.6094L26.879 27.5927C26.449 28.0763 25.9215 28.4633 25.3312 28.7283C24.7408 28.9933 24.1011 29.1303 23.454 29.1303C22.8069 29.1303 22.1672 28.9933 21.5768 28.7283C20.9865 28.4633 20.459 28.0763 20.029 27.5927L17.5207 24.771L19.3873 23.1094L21.8973 25.931C22.0928 26.1508 22.3326 26.3267 22.6009 26.4471C22.8692 26.5675 23.1599 26.6298 23.454 26.6298C23.7481 26.6298 24.0389 26.5675 24.3072 26.4471C24.5755 26.3267 24.8152 26.1508 25.0107 25.931L33.884 15.9477C34.2226 15.5665 34.4096 15.0743 34.4096 14.5644C34.4096 14.0545 34.2226 13.5623 33.884 13.181L25.0107 3.19771C24.8152 2.97796 24.5755 2.80209 24.3072 2.68166C24.0389 2.56122 23.7481 2.49896 23.454 2.49896C23.1599 2.49896 22.8692 2.56122 22.6009 2.68166C22.3326 2.80209 22.0928 2.97796 21.8973 3.19771" fill="var(--fill-0, #A62C2C)"/>
<path id="Vector_2" d="M10.031 1.53763C10.461 1.05408 10.9886 0.667062 11.5789 0.40204C12.1692 0.137018 12.809 0 13.456 0C14.1031 0 14.7429 0.137018 15.3332 0.40204C15.9235 0.667062 16.451 1.05408 16.881 1.53763L25.756 11.521C26.5013 12.3598 26.913 13.443 26.913 14.5651C26.913 15.6873 26.5013 16.7704 25.756 17.6093L16.8827 27.5926C16.4527 28.0764 15.9251 28.4637 15.3346 28.7289C14.7441 28.9941 14.1042 29.1312 13.4569 29.1312C12.8096 29.1312 12.1696 28.9941 11.5791 28.7289C10.9887 28.4637 10.461 28.0764 10.031 27.5926L1.15771 17.6093C0.411943 16.7703 0 15.6868 0 14.5643C0 13.4418 0.411943 12.3583 1.15771 11.5193L10.031 1.53763Z" fill="var(--fill-0, #A62C2C)"/>
</g>
</svg>
