<svg preserveAspectRatio="none" width="100%" height="100%" overflow="visible" style="display: block;" viewBox="0 0 40 40" fill="none" xmlns="http://www.w3.org/2000/svg">
<g id="ph:coin-vertical-fill">
<path id="Vector" d="M31.0172 8.76406C29.1312 5.53125 26.55 3.75 23.75 3.75H16.25C13.45 3.75 10.8688 5.53125 8.98281 8.76406C7.22031 11.7844 6.25 15.7812 6.25 20C6.25 24.2188 7.22031 28.2156 8.98281 31.2359C10.8688 34.4688 13.45 36.25 16.25 36.25H23.75C26.55 36.25 29.1312 34.4688 31.0172 31.2359C32.7797 28.2156 33.75 24.2188 33.75 20C33.75 15.7812 32.7797 11.7844 31.0172 8.76406ZM31.2172 18.75H26.2172C26.1195 16.1849 25.6088 13.6524 24.7047 11.25H29.4844C30.4406 13.3406 31.0719 15.9375 31.2172 18.75ZM27.9984 8.75H23.5094C22.9874 7.84414 22.3579 7.00471 21.6344 6.25H23.75C25.3125 6.25 26.7813 7.1875 27.9984 8.75ZM23.75 33.75H21.6391C22.3625 32.9953 22.9921 32.1559 23.5141 31.25H28.0031C26.7813 32.8125 25.3125 33.75 23.75 33.75ZM29.4844 28.75H24.7062C25.6103 26.3476 26.121 23.8151 26.2188 21.25H31.2188C31.0719 24.0625 30.4406 26.6594 29.4844 28.75Z" fill="var(--fill-0, #A62C2C)"/>
</g>
</svg>
