<svg preserveAspectRatio="none" width="100%" height="100%" overflow="visible" style="display: block;" viewBox="0 0 40 40" fill="none" xmlns="http://www.w3.org/2000/svg">
<g id="material-symbols:calendar-clock-rounded">
<path id="Vector" d="M8.33333 36.6667C7.41667 36.6667 6.63222 36.3406 5.98 35.6883C5.32778 35.0361 5.00111 34.2511 5 33.3333V10C5 9.08333 5.32667 8.29889 5.98 7.64667C6.63333 6.99444 7.41778 6.66778 8.33333 6.66667H10V5C10 4.52778 10.16 4.13222 10.48 3.81333C10.8 3.49445 11.1956 3.33444 11.6667 3.33333C12.1378 3.33222 12.5339 3.49222 12.855 3.81333C13.1761 4.13445 13.3356 4.53 13.3333 5V6.66667H26.6667V5C26.6667 4.52778 26.8267 4.13222 27.1467 3.81333C27.4667 3.49445 27.8622 3.33444 28.3333 3.33333C28.8044 3.33222 29.2006 3.49222 29.5217 3.81333C29.8428 4.13445 30.0022 4.53 30 5V6.66667H31.6667C32.5833 6.66667 33.3683 6.99333 34.0217 7.64667C34.675 8.3 35.0011 9.08444 35 10V17.7917C35 18.2639 34.84 18.66 34.52 18.98C34.2 19.3 33.8044 19.4594 33.3333 19.4583C32.8622 19.4572 32.4667 19.2972 32.1467 18.9783C31.8267 18.6594 31.6667 18.2639 31.6667 17.7917V16.6667H8.33333V33.3333H18C18.4722 33.3333 18.8683 33.4933 19.1883 33.8133C19.5083 34.1333 19.6678 34.5289 19.6667 35C19.6656 35.4711 19.5056 35.8672 19.1867 36.1883C18.8678 36.5094 18.4722 36.6689 18 36.6667H8.33333ZM24.105 35.8967C22.4794 34.2711 21.6667 32.3056 21.6667 30C21.6667 27.6944 22.4794 25.7294 24.105 24.105C25.7306 22.4806 27.6956 21.6678 30 21.6667C32.3044 21.6656 34.27 22.4783 35.8967 24.105C37.5233 25.7317 38.3356 27.6967 38.3333 30C38.3311 32.3033 37.5183 34.2689 35.895 35.8967C34.2717 37.5244 32.3067 38.3367 30 38.3333C27.6933 38.33 25.7283 37.5189 24.105 35.8967ZM30.8333 29.6667V25.8333C30.8333 25.6111 30.75 25.4167 30.5833 25.25C30.4167 25.0833 30.2222 25 30 25C29.7778 25 29.5833 25.0833 29.4167 25.25C29.25 25.4167 29.1667 25.6111 29.1667 25.8333V29.625C29.1667 29.8472 29.2083 30.0628 29.2917 30.2717C29.375 30.4806 29.5 30.6678 29.6667 30.8333L32.2083 33.375C32.375 33.5417 32.5694 33.625 32.7917 33.625C33.0139 33.625 33.2083 33.5417 33.375 33.375C33.5417 33.2083 33.625 33.0139 33.625 32.7917C33.625 32.5694 33.5417 32.375 33.375 32.2083L30.8333 29.6667Z" fill="var(--fill-0, #A62C2C)"/>
</g>
</svg>
